<mxfile host="app.diagrams.net" agent="Mozilla/5.0 (Macintosh; Intel Mac OS X 10_15_7) AppleWebKit/537.36 (KHTML, like Gecko) Chrome/131.0.0.0 Safari/537.36" version="25.0.3">
  <diagram id="C5RBs43oDa-KdzZeNtuy" name="Page-1">
    <mxGraphModel dx="1080" dy="684" grid="1" gridSize="10" guides="1" tooltips="1" connect="1" arrows="1" fold="1" page="1" pageScale="1" pageWidth="1200" pageHeight="750" math="0" shadow="0">
      <root>
        <mxCell id="WIyWlLk6GJQsqaUBKTNV-0" />
        <mxCell id="WIyWlLk6GJQsqaUBKTNV-1" parent="WIyWlLk6GJQsqaUBKTNV-0" />
        <mxCell id="WIyWlLk6GJQsqaUBKTNV-3" value="Dashboard" style="rounded=1;whiteSpace=wrap;html=1;fontSize=12;glass=0;strokeWidth=1;shadow=0;fillColor=#b0e3e6;strokeColor=#0e8088;" parent="WIyWlLk6GJQsqaUBKTNV-1" vertex="1">
          <mxGeometry x="780" y="230" width="120" height="90" as="geometry" />
        </mxCell>
        <mxCell id="b7soAuhRAeHNu-KJXFQn-3" value="Databases" style="shape=cylinder3;whiteSpace=wrap;html=1;boundedLbl=1;backgroundOutline=1;size=15;fillColor=#e1d5e7;strokeColor=#9673a6;" vertex="1" parent="WIyWlLk6GJQsqaUBKTNV-1">
          <mxGeometry x="797" width="86" height="100" as="geometry" />
        </mxCell>
        <mxCell id="b7soAuhRAeHNu-KJXFQn-4" value="Line of Business" style="rounded=1;whiteSpace=wrap;html=1;fontSize=12;glass=0;strokeWidth=1;shadow=0;fillColor=#e6d0de;strokeColor=#996185;gradientColor=#d5739d;" vertex="1" parent="WIyWlLk6GJQsqaUBKTNV-1">
          <mxGeometry x="1036" y="240" width="110" height="70" as="geometry" />
        </mxCell>
        <mxCell id="b7soAuhRAeHNu-KJXFQn-5" value="User Type&lt;br&gt;Plugin&lt;span style=&quot;color: rgba(0, 0, 0, 0); font-family: monospace; font-size: 0px; text-align: start; text-wrap-mode: nowrap;&quot;&gt;%3CmxGraphModel%3E%3Croot%3E%3CmxCell%20id%3D%220%22%2F%3E%3CmxCell%20id%3D%221%22%20parent%3D%220%22%2F%3E%3CmxCell%20id%3D%222%22%20value%3D%22Dashboard%22%20style%3D%22rounded%3D1%3BwhiteSpace%3Dwrap%3Bhtml%3D1%3BfontSize%3D12%3Bglass%3D0%3BstrokeWidth%3D1%3Bshadow%3D0%3B%22%20vertex%3D%221%22%20parent%3D%221%22%3E%3CmxGeometry%20x%3D%22294%22%20y%3D%22370%22%20width%3D%22120%22%20height%3D%2290%22%20as%3D%22geometry%22%2F%3E%3C%2FmxCell%3E%3C%2Froot%3E%3C%2FmxGraphModel%3E&lt;/span&gt;" style="ellipse;whiteSpace=wrap;html=1;aspect=fixed;fillColor=#fad9d5;strokeColor=#ae4132;" vertex="1" parent="WIyWlLk6GJQsqaUBKTNV-1">
          <mxGeometry x="550" y="225" width="90" height="90" as="geometry" />
        </mxCell>
        <mxCell id="b7soAuhRAeHNu-KJXFQn-6" value="Controller" style="ellipse;whiteSpace=wrap;html=1;aspect=fixed;fillColor=#e3c800;strokeColor=#B09500;fontColor=#000000;" vertex="1" parent="WIyWlLk6GJQsqaUBKTNV-1">
          <mxGeometry x="550" y="5" width="90" height="90" as="geometry" />
        </mxCell>
        <mxCell id="b7soAuhRAeHNu-KJXFQn-7" value="API" style="rhombus;whiteSpace=wrap;html=1;fillColor=#ffe6cc;strokeColor=#d79b00;" vertex="1" parent="WIyWlLk6GJQsqaUBKTNV-1">
          <mxGeometry x="310" y="10" width="110" height="80" as="geometry" />
        </mxCell>
        <mxCell id="b7soAuhRAeHNu-KJXFQn-8" value="SQL&lt;br&gt;Server&lt;br&gt;Database" style="shape=cylinder3;whiteSpace=wrap;html=1;boundedLbl=1;backgroundOutline=1;size=15;fillColor=#e1d5e7;strokeColor=#9673a6;" vertex="1" parent="WIyWlLk6GJQsqaUBKTNV-1">
          <mxGeometry x="322" y="210" width="86" height="100" as="geometry" />
        </mxCell>
        <mxCell id="b7soAuhRAeHNu-KJXFQn-10" value="Tenants" style="ellipse;whiteSpace=wrap;html=1;fillColor=#dae8fc;gradientColor=#7ea6e0;strokeColor=#6c8ebf;" vertex="1" parent="WIyWlLk6GJQsqaUBKTNV-1">
          <mxGeometry x="80" y="10" width="120" height="80" as="geometry" />
        </mxCell>
        <mxCell id="b7soAuhRAeHNu-KJXFQn-11" value="" style="endArrow=classic;html=1;rounded=0;entryX=0;entryY=0.5;entryDx=0;entryDy=0;exitX=1;exitY=0.5;exitDx=0;exitDy=0;" edge="1" parent="WIyWlLk6GJQsqaUBKTNV-1" source="WIyWlLk6GJQsqaUBKTNV-3" target="b7soAuhRAeHNu-KJXFQn-4">
          <mxGeometry width="50" height="50" relative="1" as="geometry">
            <mxPoint x="700" y="290" as="sourcePoint" />
            <mxPoint x="750" y="240" as="targetPoint" />
          </mxGeometry>
        </mxCell>
        <mxCell id="b7soAuhRAeHNu-KJXFQn-12" value="Line of Business&lt;br&gt;Enable Features" style="edgeLabel;html=1;align=center;verticalAlign=middle;resizable=0;points=[];" vertex="1" connectable="0" parent="b7soAuhRAeHNu-KJXFQn-11">
          <mxGeometry x="0.0588" y="-2" relative="1" as="geometry">
            <mxPoint as="offset" />
          </mxGeometry>
        </mxCell>
        <mxCell id="b7soAuhRAeHNu-KJXFQn-14" value="" style="endArrow=classic;html=1;rounded=0;exitX=0.5;exitY=1;exitDx=0;exitDy=0;exitPerimeter=0;entryX=0.5;entryY=0;entryDx=0;entryDy=0;" edge="1" parent="WIyWlLk6GJQsqaUBKTNV-1" source="b7soAuhRAeHNu-KJXFQn-3" target="WIyWlLk6GJQsqaUBKTNV-3">
          <mxGeometry width="50" height="50" relative="1" as="geometry">
            <mxPoint x="910" y="285" as="sourcePoint" />
            <mxPoint x="910" y="150" as="targetPoint" />
          </mxGeometry>
        </mxCell>
        <mxCell id="b7soAuhRAeHNu-KJXFQn-15" value="User and System&lt;br&gt;Errors" style="edgeLabel;html=1;align=center;verticalAlign=middle;resizable=0;points=[];" vertex="1" connectable="0" parent="b7soAuhRAeHNu-KJXFQn-14">
          <mxGeometry x="0.0588" y="-2" relative="1" as="geometry">
            <mxPoint as="offset" />
          </mxGeometry>
        </mxCell>
        <mxCell id="b7soAuhRAeHNu-KJXFQn-16" value="" style="endArrow=classic;html=1;rounded=0;entryX=0.5;entryY=1;entryDx=0;entryDy=0;exitX=0.5;exitY=1;exitDx=0;exitDy=0;" edge="1" parent="WIyWlLk6GJQsqaUBKTNV-1" source="b7soAuhRAeHNu-KJXFQn-5" target="WIyWlLk6GJQsqaUBKTNV-3">
          <mxGeometry width="50" height="50" relative="1" as="geometry">
            <mxPoint x="680" y="320" as="sourcePoint" />
            <mxPoint x="595" y="440" as="targetPoint" />
            <Array as="points">
              <mxPoint x="595" y="350" />
              <mxPoint x="840" y="350" />
            </Array>
          </mxGeometry>
        </mxCell>
        <mxCell id="b7soAuhRAeHNu-KJXFQn-17" value="Roles of Security" style="edgeLabel;html=1;align=center;verticalAlign=middle;resizable=0;points=[];" vertex="1" connectable="0" parent="b7soAuhRAeHNu-KJXFQn-16">
          <mxGeometry x="0.0588" y="-2" relative="1" as="geometry">
            <mxPoint as="offset" />
          </mxGeometry>
        </mxCell>
        <mxCell id="b7soAuhRAeHNu-KJXFQn-18" value="" style="endArrow=classic;html=1;rounded=0;" edge="1" parent="WIyWlLk6GJQsqaUBKTNV-1" source="b7soAuhRAeHNu-KJXFQn-6" target="b7soAuhRAeHNu-KJXFQn-5">
          <mxGeometry width="50" height="50" relative="1" as="geometry">
            <mxPoint x="595" y="100" as="sourcePoint" />
            <mxPoint x="660" y="140" as="targetPoint" />
          </mxGeometry>
        </mxCell>
        <mxCell id="b7soAuhRAeHNu-KJXFQn-19" value="User&lt;br&gt;Type" style="edgeLabel;html=1;align=center;verticalAlign=middle;resizable=0;points=[];" vertex="1" connectable="0" parent="b7soAuhRAeHNu-KJXFQn-18">
          <mxGeometry x="0.0588" y="-2" relative="1" as="geometry">
            <mxPoint as="offset" />
          </mxGeometry>
        </mxCell>
        <mxCell id="b7soAuhRAeHNu-KJXFQn-21" value="" style="endArrow=classic;html=1;rounded=0;exitX=1;exitY=0.5;exitDx=0;exitDy=0;entryX=0;entryY=0.5;entryDx=0;entryDy=0;" edge="1" parent="WIyWlLk6GJQsqaUBKTNV-1" source="b7soAuhRAeHNu-KJXFQn-7" target="b7soAuhRAeHNu-KJXFQn-6">
          <mxGeometry width="50" height="50" relative="1" as="geometry">
            <mxPoint x="605" y="235" as="sourcePoint" />
            <mxPoint x="480" y="170" as="targetPoint" />
          </mxGeometry>
        </mxCell>
        <mxCell id="b7soAuhRAeHNu-KJXFQn-22" value="User&lt;br&gt;Configuration&lt;br&gt;Information" style="edgeLabel;html=1;align=center;verticalAlign=middle;resizable=0;points=[];" vertex="1" connectable="0" parent="b7soAuhRAeHNu-KJXFQn-21">
          <mxGeometry x="0.0588" y="-2" relative="1" as="geometry">
            <mxPoint as="offset" />
          </mxGeometry>
        </mxCell>
        <mxCell id="b7soAuhRAeHNu-KJXFQn-23" value="" style="endArrow=classic;html=1;rounded=0;entryX=0.164;entryY=0.638;entryDx=0;entryDy=0;entryPerimeter=0;exitX=0.058;exitY=0.05;exitDx=0;exitDy=0;exitPerimeter=0;" edge="1" parent="WIyWlLk6GJQsqaUBKTNV-1" source="b7soAuhRAeHNu-KJXFQn-8" target="b7soAuhRAeHNu-KJXFQn-7">
          <mxGeometry width="50" height="50" relative="1" as="geometry">
            <mxPoint x="320" y="220" as="sourcePoint" />
            <mxPoint x="430" y="60" as="targetPoint" />
          </mxGeometry>
        </mxCell>
        <mxCell id="b7soAuhRAeHNu-KJXFQn-24" value="User&lt;br&gt;Configuration&lt;br&gt;Information" style="edgeLabel;html=1;align=center;verticalAlign=middle;resizable=0;points=[];" vertex="1" connectable="0" parent="b7soAuhRAeHNu-KJXFQn-23">
          <mxGeometry x="0.0588" y="-2" relative="1" as="geometry">
            <mxPoint as="offset" />
          </mxGeometry>
        </mxCell>
        <mxCell id="b7soAuhRAeHNu-KJXFQn-25" value="" style="endArrow=classic;html=1;rounded=0;exitX=0.818;exitY=0.688;exitDx=0;exitDy=0;exitPerimeter=0;" edge="1" parent="WIyWlLk6GJQsqaUBKTNV-1" source="b7soAuhRAeHNu-KJXFQn-7">
          <mxGeometry width="50" height="50" relative="1" as="geometry">
            <mxPoint x="396" y="63" as="sourcePoint" />
            <mxPoint x="402" y="220" as="targetPoint" />
          </mxGeometry>
        </mxCell>
        <mxCell id="b7soAuhRAeHNu-KJXFQn-26" value="User&lt;br&gt;Name" style="edgeLabel;html=1;align=center;verticalAlign=middle;resizable=0;points=[];" vertex="1" connectable="0" parent="b7soAuhRAeHNu-KJXFQn-25">
          <mxGeometry x="0.0588" y="-2" relative="1" as="geometry">
            <mxPoint as="offset" />
          </mxGeometry>
        </mxCell>
        <mxCell id="b7soAuhRAeHNu-KJXFQn-28" value="" style="endArrow=classic;html=1;rounded=0;entryX=0;entryY=0.5;entryDx=0;entryDy=0;exitX=1;exitY=0.5;exitDx=0;exitDy=0;" edge="1" parent="WIyWlLk6GJQsqaUBKTNV-1" source="b7soAuhRAeHNu-KJXFQn-10" target="b7soAuhRAeHNu-KJXFQn-7">
          <mxGeometry width="50" height="50" relative="1" as="geometry">
            <mxPoint x="240" y="130" as="sourcePoint" />
            <mxPoint x="430" y="60" as="targetPoint" />
          </mxGeometry>
        </mxCell>
        <mxCell id="b7soAuhRAeHNu-KJXFQn-29" value="User&lt;br&gt;Name" style="edgeLabel;html=1;align=center;verticalAlign=middle;resizable=0;points=[];" vertex="1" connectable="0" parent="b7soAuhRAeHNu-KJXFQn-28">
          <mxGeometry x="0.0588" y="-2" relative="1" as="geometry">
            <mxPoint as="offset" />
          </mxGeometry>
        </mxCell>
        <mxCell id="b7soAuhRAeHNu-KJXFQn-32" style="edgeStyle=orthogonalEdgeStyle;rounded=0;orthogonalLoop=1;jettySize=auto;html=1;entryX=0;entryY=0.5;entryDx=0;entryDy=0;exitX=1;exitY=0.5;exitDx=0;exitDy=0;" edge="1" parent="WIyWlLk6GJQsqaUBKTNV-1" source="b7soAuhRAeHNu-KJXFQn-34" target="b7soAuhRAeHNu-KJXFQn-31">
          <mxGeometry relative="1" as="geometry">
            <mxPoint x="254.95" y="435" as="sourcePoint" />
          </mxGeometry>
        </mxCell>
        <mxCell id="b7soAuhRAeHNu-KJXFQn-33" value="&lt;font style=&quot;font-size: 15px;&quot;&gt;Yes&lt;/font&gt;" style="edgeLabel;html=1;align=center;verticalAlign=middle;resizable=0;points=[];" vertex="1" connectable="0" parent="b7soAuhRAeHNu-KJXFQn-32">
          <mxGeometry x="0.0613" y="1" relative="1" as="geometry">
            <mxPoint x="-1" as="offset" />
          </mxGeometry>
        </mxCell>
        <mxCell id="b7soAuhRAeHNu-KJXFQn-43" style="edgeStyle=orthogonalEdgeStyle;rounded=0;orthogonalLoop=1;jettySize=auto;html=1;" edge="1" parent="WIyWlLk6GJQsqaUBKTNV-1" source="b7soAuhRAeHNu-KJXFQn-31" target="b7soAuhRAeHNu-KJXFQn-42">
          <mxGeometry relative="1" as="geometry" />
        </mxCell>
        <mxCell id="b7soAuhRAeHNu-KJXFQn-31" value="Log In" style="rounded=0;whiteSpace=wrap;html=1;fillColor=#1ba1e2;strokeColor=#006EAF;fontColor=#ffffff;" vertex="1" parent="WIyWlLk6GJQsqaUBKTNV-1">
          <mxGeometry x="376.95" y="405" width="120" height="60" as="geometry" />
        </mxCell>
        <mxCell id="b7soAuhRAeHNu-KJXFQn-34" value="Does user&lt;br&gt;have&lt;br&gt;credentials?" style="rhombus;whiteSpace=wrap;html=1;fillColor=#ffcd28;gradientColor=#ffa500;strokeColor=#d79b00;" vertex="1" parent="WIyWlLk6GJQsqaUBKTNV-1">
          <mxGeometry x="144.95" y="380" width="110" height="110" as="geometry" />
        </mxCell>
        <mxCell id="b7soAuhRAeHNu-KJXFQn-41" style="edgeStyle=orthogonalEdgeStyle;rounded=0;orthogonalLoop=1;jettySize=auto;html=1;entryX=0;entryY=0.5;entryDx=0;entryDy=0;" edge="1" parent="WIyWlLk6GJQsqaUBKTNV-1" source="b7soAuhRAeHNu-KJXFQn-37" target="b7soAuhRAeHNu-KJXFQn-34">
          <mxGeometry relative="1" as="geometry">
            <mxPoint x="94.94999999999999" y="445" as="targetPoint" />
            <Array as="points">
              <mxPoint x="119.94999999999999" y="585" />
              <mxPoint x="119.94999999999999" y="435" />
            </Array>
          </mxGeometry>
        </mxCell>
        <mxCell id="b7soAuhRAeHNu-KJXFQn-37" value="Contact Support&lt;br&gt;to receive credentials" style="rounded=0;whiteSpace=wrap;html=1;fillColor=#6a00ff;strokeColor=#3700CC;fontColor=#ffffff;" vertex="1" parent="WIyWlLk6GJQsqaUBKTNV-1">
          <mxGeometry x="139.95" y="555" width="120" height="60" as="geometry" />
        </mxCell>
        <mxCell id="b7soAuhRAeHNu-KJXFQn-38" style="edgeStyle=orthogonalEdgeStyle;rounded=0;orthogonalLoop=1;jettySize=auto;html=1;exitX=0.5;exitY=1;exitDx=0;exitDy=0;" edge="1" parent="WIyWlLk6GJQsqaUBKTNV-1" source="b7soAuhRAeHNu-KJXFQn-34" target="b7soAuhRAeHNu-KJXFQn-37">
          <mxGeometry relative="1" as="geometry">
            <mxPoint x="264.95" y="445" as="sourcePoint" />
            <mxPoint x="386.95" y="445" as="targetPoint" />
          </mxGeometry>
        </mxCell>
        <mxCell id="b7soAuhRAeHNu-KJXFQn-39" value="&lt;font style=&quot;font-size: 15px;&quot;&gt;No&lt;/font&gt;" style="edgeLabel;html=1;align=center;verticalAlign=middle;resizable=0;points=[];" vertex="1" connectable="0" parent="b7soAuhRAeHNu-KJXFQn-38">
          <mxGeometry x="0.0613" y="1" relative="1" as="geometry">
            <mxPoint x="-1" as="offset" />
          </mxGeometry>
        </mxCell>
        <mxCell id="b7soAuhRAeHNu-KJXFQn-52" style="edgeStyle=orthogonalEdgeStyle;rounded=0;orthogonalLoop=1;jettySize=auto;html=1;" edge="1" parent="WIyWlLk6GJQsqaUBKTNV-1" source="b7soAuhRAeHNu-KJXFQn-42" target="b7soAuhRAeHNu-KJXFQn-49">
          <mxGeometry relative="1" as="geometry" />
        </mxCell>
        <mxCell id="b7soAuhRAeHNu-KJXFQn-58" value="&lt;font style=&quot;font-size: 15px;&quot;&gt;Yes&lt;/font&gt;" style="edgeLabel;html=1;align=center;verticalAlign=middle;resizable=0;points=[];" vertex="1" connectable="0" parent="b7soAuhRAeHNu-KJXFQn-52">
          <mxGeometry x="-0.5306" relative="1" as="geometry">
            <mxPoint x="-27" as="offset" />
          </mxGeometry>
        </mxCell>
        <mxCell id="b7soAuhRAeHNu-KJXFQn-56" style="edgeStyle=orthogonalEdgeStyle;rounded=0;orthogonalLoop=1;jettySize=auto;html=1;" edge="1" parent="WIyWlLk6GJQsqaUBKTNV-1" source="b7soAuhRAeHNu-KJXFQn-42" target="b7soAuhRAeHNu-KJXFQn-46">
          <mxGeometry relative="1" as="geometry" />
        </mxCell>
        <mxCell id="b7soAuhRAeHNu-KJXFQn-57" value="&lt;font style=&quot;font-size: 15px;&quot;&gt;No&lt;/font&gt;" style="edgeLabel;html=1;align=center;verticalAlign=middle;resizable=0;points=[];" vertex="1" connectable="0" parent="b7soAuhRAeHNu-KJXFQn-56">
          <mxGeometry x="-0.0866" y="2" relative="1" as="geometry">
            <mxPoint as="offset" />
          </mxGeometry>
        </mxCell>
        <mxCell id="b7soAuhRAeHNu-KJXFQn-42" value="Can user&lt;br&gt;view errors?" style="rhombus;whiteSpace=wrap;html=1;fillColor=#ffcd28;gradientColor=#ffa500;strokeColor=#d79b00;" vertex="1" parent="WIyWlLk6GJQsqaUBKTNV-1">
          <mxGeometry x="590" y="380" width="110" height="110" as="geometry" />
        </mxCell>
        <mxCell id="b7soAuhRAeHNu-KJXFQn-59" style="edgeStyle=orthogonalEdgeStyle;rounded=0;orthogonalLoop=1;jettySize=auto;html=1;" edge="1" parent="WIyWlLk6GJQsqaUBKTNV-1" source="b7soAuhRAeHNu-KJXFQn-46" target="b7soAuhRAeHNu-KJXFQn-48">
          <mxGeometry relative="1" as="geometry" />
        </mxCell>
        <mxCell id="b7soAuhRAeHNu-KJXFQn-46" value="&lt;p style=&quot;margin: 0px; font-variant-numeric: normal; font-variant-east-asian: normal; font-variant-alternates: normal; font-size-adjust: none; font-kerning: auto; font-optical-sizing: auto; font-feature-settings: normal; font-variation-settings: normal; font-variant-position: normal; font-variant-emoji: normal; font-stretch: normal; line-height: normal; text-align: start;&quot; class=&quot;p1&quot;&gt;Click on &quot;?&quot; for&lt;br&gt;QTC Dashboard&lt;br&gt;Help&lt;/p&gt;" style="rounded=0;whiteSpace=wrap;html=1;fillColor=#d80073;fontColor=#ffffff;strokeColor=#A50040;" vertex="1" parent="WIyWlLk6GJQsqaUBKTNV-1">
          <mxGeometry x="585" y="555" width="120" height="60" as="geometry" />
        </mxCell>
        <mxCell id="b7soAuhRAeHNu-KJXFQn-64" style="edgeStyle=orthogonalEdgeStyle;rounded=0;orthogonalLoop=1;jettySize=auto;html=1;" edge="1" parent="WIyWlLk6GJQsqaUBKTNV-1" source="b7soAuhRAeHNu-KJXFQn-48" target="b7soAuhRAeHNu-KJXFQn-51">
          <mxGeometry relative="1" as="geometry" />
        </mxCell>
        <mxCell id="b7soAuhRAeHNu-KJXFQn-68" value="&lt;font style=&quot;font-size: 15px;&quot;&gt;No&lt;/font&gt;" style="edgeLabel;html=1;align=center;verticalAlign=middle;resizable=0;points=[];" vertex="1" connectable="0" parent="b7soAuhRAeHNu-KJXFQn-64">
          <mxGeometry x="-0.4968" y="-1" relative="1" as="geometry">
            <mxPoint as="offset" />
          </mxGeometry>
        </mxCell>
        <mxCell id="b7soAuhRAeHNu-KJXFQn-66" style="edgeStyle=orthogonalEdgeStyle;rounded=0;orthogonalLoop=1;jettySize=auto;html=1;entryX=0;entryY=0.5;entryDx=0;entryDy=0;" edge="1" parent="WIyWlLk6GJQsqaUBKTNV-1" source="b7soAuhRAeHNu-KJXFQn-48" target="b7soAuhRAeHNu-KJXFQn-49">
          <mxGeometry relative="1" as="geometry" />
        </mxCell>
        <mxCell id="b7soAuhRAeHNu-KJXFQn-67" value="&lt;font style=&quot;font-size: 15px;&quot;&gt;Yes&lt;/font&gt;" style="edgeLabel;html=1;align=center;verticalAlign=middle;resizable=0;points=[];" vertex="1" connectable="0" parent="b7soAuhRAeHNu-KJXFQn-66">
          <mxGeometry x="-0.8075" y="4" relative="1" as="geometry">
            <mxPoint as="offset" />
          </mxGeometry>
        </mxCell>
        <mxCell id="b7soAuhRAeHNu-KJXFQn-48" value="Does &quot;?&quot; help&lt;br&gt;fix problem?" style="rhombus;whiteSpace=wrap;html=1;fillColor=#ffcd28;gradientColor=#ffa500;strokeColor=#d79b00;" vertex="1" parent="WIyWlLk6GJQsqaUBKTNV-1">
          <mxGeometry x="590" y="640" width="110" height="110" as="geometry" />
        </mxCell>
        <mxCell id="b7soAuhRAeHNu-KJXFQn-69" style="edgeStyle=orthogonalEdgeStyle;rounded=0;orthogonalLoop=1;jettySize=auto;html=1;" edge="1" parent="WIyWlLk6GJQsqaUBKTNV-1" source="b7soAuhRAeHNu-KJXFQn-49" target="b7soAuhRAeHNu-KJXFQn-62">
          <mxGeometry relative="1" as="geometry" />
        </mxCell>
        <mxCell id="b7soAuhRAeHNu-KJXFQn-49" value="Work on desired error.&lt;br&gt;When done sign out of&lt;br&gt;QTC Smart Dashboard." style="rounded=0;whiteSpace=wrap;html=1;fillColor=#1ba1e2;strokeColor=#006EAF;fontColor=#ffffff;" vertex="1" parent="WIyWlLk6GJQsqaUBKTNV-1">
          <mxGeometry x="885" y="490" width="150" height="90" as="geometry" />
        </mxCell>
        <mxCell id="b7soAuhRAeHNu-KJXFQn-65" style="edgeStyle=orthogonalEdgeStyle;rounded=0;orthogonalLoop=1;jettySize=auto;html=1;entryX=0;entryY=0.5;entryDx=0;entryDy=0;" edge="1" parent="WIyWlLk6GJQsqaUBKTNV-1" source="b7soAuhRAeHNu-KJXFQn-51" target="b7soAuhRAeHNu-KJXFQn-42">
          <mxGeometry relative="1" as="geometry">
            <Array as="points">
              <mxPoint x="490" y="500" />
              <mxPoint x="540" y="500" />
              <mxPoint x="540" y="435" />
            </Array>
          </mxGeometry>
        </mxCell>
        <mxCell id="b7soAuhRAeHNu-KJXFQn-51" value="Contact Support&lt;br&gt;for help with&lt;br&gt;your configuration" style="rounded=0;whiteSpace=wrap;html=1;fillColor=#6a00ff;strokeColor=#3700CC;fontColor=#ffffff;" vertex="1" parent="WIyWlLk6GJQsqaUBKTNV-1">
          <mxGeometry x="430" y="555" width="120" height="60" as="geometry" />
        </mxCell>
        <mxCell id="b7soAuhRAeHNu-KJXFQn-70" style="edgeStyle=orthogonalEdgeStyle;rounded=0;orthogonalLoop=1;jettySize=auto;html=1;entryX=0;entryY=0.5;entryDx=0;entryDy=0;" edge="1" parent="WIyWlLk6GJQsqaUBKTNV-1" source="b7soAuhRAeHNu-KJXFQn-61" target="b7soAuhRAeHNu-KJXFQn-34">
          <mxGeometry relative="1" as="geometry" />
        </mxCell>
        <mxCell id="b7soAuhRAeHNu-KJXFQn-61" value="START" style="ellipse;whiteSpace=wrap;html=1;aspect=fixed;fillColor=#d5e8d4;gradientColor=#97d077;strokeColor=#82b366;" vertex="1" parent="WIyWlLk6GJQsqaUBKTNV-1">
          <mxGeometry y="395" width="80" height="80" as="geometry" />
        </mxCell>
        <mxCell id="b7soAuhRAeHNu-KJXFQn-62" value="END" style="ellipse;whiteSpace=wrap;html=1;aspect=fixed;fillColor=#f8cecc;strokeColor=#b85450;gradientColor=#ea6b66;" vertex="1" parent="WIyWlLk6GJQsqaUBKTNV-1">
          <mxGeometry x="1120" y="495" width="80" height="80" as="geometry" />
        </mxCell>
      </root>
    </mxGraphModel>
  </diagram>
</mxfile>
